{
    "asset" : {
        "generator" : "Khronos glTF Blender I/O v1.0.5",
        "version" : "2.0"
    },
    "scene" : 0,
    "scenes" : [
        {
            "name" : "Scene",
            "nodes" : [
                5
            ]
        }
    ],
    "nodes" : [
        {
            "mesh" : 0,
            "name" : "Blue Petals",
            "rotation" : [
                0.7071068286895752,
                0,
                0,
                0.7071067094802856
            ],
            "scale" : [
                1.2000000476837158,
                0.5514252185821533,
                1
            ],
            "translation" : [
                0,
                0,
                0.11759556829929352
            ]
        },
        {
            "mesh" : 1,
            "name" : "Center",
            "rotation" : [
                0.7071068286895752,
                0,
                0,
                0.7071067094802856
            ],
            "scale" : [
                0.27069199085235596,
                0.027561405673623085,
                0.27069199085235596
            ],
            "translation" : [
                0,
                0,
                0.14379891753196716
            ]
        },
        {
            "mesh" : 2,
            "name" : "Rings",
            "rotation" : [
                0,
                0.7071067094802856,
                0.7071068286895752,
                -3.0908616110991716e-08
            ],
            "scale" : [
                -0.33854854106903076,
                -0.021778011694550514,
                -0.33854854106903076
            ],
            "translation" : [
                0,
                0,
                0.11338525265455246
            ]
        },
        {
            "mesh" : 3,
            "name" : "Text",
            "rotation" : [
                -0.7071068286895752,
                0,
                0,
                0.7071067094802856
            ],
            "scale" : [
                -2.074130058288574,
                -2.0741288661956787,
                -2.0741288661956787
            ],
            "translation" : [
                0,
                0,
                -0.05367436632514
            ]
        },
        {
            "mesh" : 4,
            "name" : "Yellow Petals",
            "rotation" : [
                0.7071068286895752,
                0,
                0,
                0.7071067094802856
            ],
            "scale" : [
                1,
                0.431221604347229,
                1.2000000476837158
            ],
            "translation" : [
                0,
                0,
                0.12225256115198135
            ]
        },
        {
            "children" : [
                0,
                1,
                2,
                3,
                4
            ],
            "mesh" : 5,
            "name" : "Shield"
        }
    ],
    "materials" : [
        {
            "doubleSided" : true,
            "name" : "Yellow",
            "pbrMetallicRoughness" : {
                "baseColorFactor" : [
                    0.8000000715255737,
                    0.7121450304985046,
                    0.00442300271242857,
                    1
                ],
                "metallicFactor" : 0,
                "roughnessFactor" : 0.5
            }
        },
        {
            "doubleSided" : true,
            "name" : "Red",
            "pbrMetallicRoughness" : {}
        },
        {
            "doubleSided" : true,
            "name" : "Blue",
            "pbrMetallicRoughness" : {
                "baseColorFactor" : [
                    0,
                    0.03321832790970802,
                    0.8000000715255737,
                    1
                ],
                "metallicFactor" : 0,
                "roughnessFactor" : 0.5
            }
        },
        {
            "doubleSided" : true,
            "name" : "Shield",
            "pbrMetallicRoughness" : {
                "baseColorTexture" : {
                    "index" : 0,
                    "texCoord" : 0
                },
                "metallicFactor" : 0,
                "roughnessFactor" : 0.5
            }
        }
    ],
    "meshes" : [
        {
            "name" : "Cylinder.004",
            "primitives" : [
                {
                    "attributes" : {
                        "POSITION" : 0,
                        "NORMAL" : 1,
                        "TEXCOORD_0" : 2
                    },
                    "indices" : 3,
                    "material" : 0
                }
            ]
        },
        {
            "name" : "Cylinder.002",
            "primitives" : [
                {
                    "attributes" : {
                        "POSITION" : 4,
                        "NORMAL" : 5,
                        "TEXCOORD_0" : 6
                    },
                    "indices" : 7,
                    "material" : 1
                }
            ]
        },
        {
            "name" : "Cylinder.001",
            "primitives" : [
                {
                    "attributes" : {
                        "POSITION" : 8,
                        "NORMAL" : 9,
                        "TEXCOORD_0" : 10
                    },
                    "indices" : 11,
                    "material" : 1
                }
            ]
        },
        {
            "name" : "Text",
            "primitives" : [
                {
                    "attributes" : {
                        "POSITION" : 12,
                        "NORMAL" : 13
                    },
                    "indices" : 14,
                    "material" : 0
                }
            ]
        },
        {
            "name" : "Cylinder.003",
            "primitives" : [
                {
                    "attributes" : {
                        "POSITION" : 15,
                        "NORMAL" : 16,
                        "TEXCOORD_0" : 17
                    },
                    "indices" : 18,
                    "material" : 2
                }
            ]
        },
        {
            "name" : "Cylinder",
            "primitives" : [
                {
                    "attributes" : {
                        "POSITION" : 19,
                        "NORMAL" : 20,
                        "TEXCOORD_0" : 21
                    },
                    "indices" : 22,
                    "material" : 3
                }
            ]
        }
    ],
    "textures" : [
        {
            "source" : 0
        }
    ],
    "images" : [
        {
            "bufferView" : 23,
            "mimeType" : "image/jpeg",
            "name" : "woodold1"
        }
    ],
    "accessors" : [
        {
            "bufferView" : 0,
            "componentType" : 5126,
            "count" : 240,
            "max" : [
                0.23851999640464783,
                0.0580122172832489,
                1.0059337615966797
            ],
            "min" : [
                -0.2385200411081314,
                -0.05909358710050583,
                -1.0059337615966797
            ],
            "type" : "VEC3"
        },
        {
            "bufferView" : 1,
            "componentType" : 5126,
            "count" : 240,
            "type" : "VEC3"
        },
        {
            "bufferView" : 2,
            "componentType" : 5126,
            "count" : 240,
            "type" : "VEC2"
        },
        {
            "bufferView" : 3,
            "componentType" : 5123,
            "count" : 456,
            "type" : "SCALAR"
        },
        {
            "bufferView" : 4,
            "componentType" : 5126,
            "count" : 192,
            "max" : [
                1,
                1,
                1
            ],
            "min" : [
                -1,
                -1,
                -1
            ],
            "type" : "VEC3"
        },
        {
            "bufferView" : 5,
            "componentType" : 5126,
            "count" : 192,
            "type" : "VEC3"
        },
        {
            "bufferView" : 6,
            "componentType" : 5126,
            "count" : 192,
            "type" : "VEC2"
        },
        {
            "bufferView" : 7,
            "componentType" : 5123,
            "count" : 372,
            "type" : "SCALAR"
        },
        {
            "bufferView" : 8,
            "componentType" : 5126,
            "count" : 768,
            "max" : [
                1.8861358165740967,
                1,
                1.8861358165740967
            ],
            "min" : [
                -1.8861358165740967,
                -1,
                -1.8861358165740967
            ],
            "type" : "VEC3"
        },
        {
            "bufferView" : 9,
            "componentType" : 5126,
            "count" : 768,
            "type" : "VEC3"
        },
        {
            "bufferView" : 10,
            "componentType" : 5126,
            "count" : 768,
            "type" : "VEC2"
        },
        {
            "bufferView" : 11,
            "componentType" : 5123,
            "count" : 1488,
            "type" : "SCALAR"
        },
        {
            "bufferView" : 12,
            "componentType" : 5126,
            "count" : 564,
            "max" : [
                0.10500000417232513,
                0.009999999776482582,
                0.3500000238418579
            ],
            "min" : [
                -0.10500001162290573,
                -0.009999999776482582,
                -0.3500000238418579
            ],
            "type" : "VEC3"
        },
        {
            "bufferView" : 13,
            "componentType" : 5126,
            "count" : 564,
            "type" : "VEC3"
        },
        {
            "bufferView" : 14,
            "componentType" : 5123,
            "count" : 1428,
            "type" : "SCALAR"
        },
        {
            "bufferView" : 15,
            "componentType" : 5126,
            "count" : 240,
            "max" : [
                1.0059337615966797,
                0.057942360639572144,
                0.2385200709104538
            ],
            "min" : [
                -1.0059337615966797,
                -0.05916344374418259,
                -0.23852002620697021
            ],
            "type" : "VEC3"
        },
        {
            "bufferView" : 16,
            "componentType" : 5126,
            "count" : 240,
            "type" : "VEC3"
        },
        {
            "bufferView" : 17,
            "componentType" : 5126,
            "count" : 240,
            "type" : "VEC2"
        },
        {
            "bufferView" : 18,
            "componentType" : 5123,
            "count" : 456,
            "type" : "SCALAR"
        },
        {
            "bufferView" : 19,
            "componentType" : 5126,
            "count" : 199,
            "max" : [
                1.1428592205047607,
                1.1428592205047607,
                0.0893232449889183
            ],
            "min" : [
                -1.1428592205047607,
                -1.1428592205047607,
                -0.051318589597940445
            ],
            "type" : "VEC3"
        },
        {
            "bufferView" : 20,
            "componentType" : 5126,
            "count" : 199,
            "type" : "VEC3"
        },
        {
            "bufferView" : 21,
            "componentType" : 5126,
            "count" : 199,
            "type" : "VEC2"
        },
        {
            "bufferView" : 22,
            "componentType" : 5123,
            "count" : 756,
            "type" : "SCALAR"
        }
    ],
    "bufferViews" : [
        {
            "buffer" : 0,
            "byteLength" : 2880,
            "byteOffset" : 0
        },
        {
            "buffer" : 0,
            "byteLength" : 2880,
            "byteOffset" : 2880
        },
        {
            "buffer" : 0,
            "byteLength" : 1920,
            "byteOffset" : 5760
        },
        {
            "buffer" : 0,
            "byteLength" : 912,
            "byteOffset" : 7680
        },
        {
            "buffer" : 0,
            "byteLength" : 2304,
            "byteOffset" : 8592
        },
        {
            "buffer" : 0,
            "byteLength" : 2304,
            "byteOffset" : 10896
        },
        {
            "buffer" : 0,
            "byteLength" : 1536,
            "byteOffset" : 13200
        },
        {
            "buffer" : 0,
            "byteLength" : 744,
            "byteOffset" : 14736
        },
        {
            "buffer" : 0,
            "byteLength" : 9216,
            "byteOffset" : 15480
        },
        {
            "buffer" : 0,
            "byteLength" : 9216,
            "byteOffset" : 24696
        },
        {
            "buffer" : 0,
            "byteLength" : 6144,
            "byteOffset" : 33912
        },
        {
            "buffer" : 0,
            "byteLength" : 2976,
            "byteOffset" : 40056
        },
        {
            "buffer" : 0,
            "byteLength" : 6768,
            "byteOffset" : 43032
        },
        {
            "buffer" : 0,
            "byteLength" : 6768,
            "byteOffset" : 49800
        },
        {
            "buffer" : 0,
            "byteLength" : 2856,
            "byteOffset" : 56568
        },
        {
            "buffer" : 0,
            "byteLength" : 2880,
            "byteOffset" : 59424
        },
        {
            "buffer" : 0,
            "byteLength" : 2880,
            "byteOffset" : 62304
        },
        {
            "buffer" : 0,
            "byteLength" : 1920,
            "byteOffset" : 65184
        },
        {
            "buffer" : 0,
            "byteLength" : 912,
            "byteOffset" : 67104
        },
        {
            "buffer" : 0,
            "byteLength" : 2388,
            "byteOffset" : 68016
        },
        {
            "buffer" : 0,
            "byteLength" : 2388,
            "byteOffset" : 70404
        },
        {
            "buffer" : 0,
            "byteLength" : 1592,
            "byteOffset" : 72792
        },
        {
            "buffer" : 0,
            "byteLength" : 1512,
            "byteOffset" : 74384
        },
        {
            "buffer" : 0,
            "byteLength" : 25169,
            "byteOffset" : 75896
        }
    ],
    "buffers" : [
        {
            "byteLength" : 101068,
            "uri" : "data:application/octet-stream;base64,"
        }
    ]
}
