{
  "asset": {
    "version": "2.0",
    "generator": "GLTFExporter"
  },
  "scenes": [
    {
      "name": "Scene",
      "nodes": [
        1,
        2
      ]
    }
  ],
  "scene": 0,
  "nodes": [
    {
      "matrix": [
        0.6862209367362695,
        0.727393152679845,
        0,
        0,
        -0.727393152679845,
        0.6862209367362695,
        0,
        0,
        0,
        0,
        1,
        0,
        0,
        0,
        0,
        1
      ],
      "name": "Circle",
      "extras": {
        "name": "Circle"
      },
      "mesh": 0
    },
    {
      "name": "smaragd.glb",
      "children": [
        0
      ]
    },
    {
      "matrix": [
        1.3216419442785239,
        0,
        0,
        0,
        0,
        1.3216419442785239,
        0,
        0,
        0,
        0,
        1.3216419442785239,
        0,
        -1.9631917847950295,
        0,
        2.2038068511838604,
        1
      ],
      "name": "PointLight",
      "extensions": {
        "KHR_lights_punctual": {
          "light": 0
        }
      }
    }
  ],
  "bufferViews": [
    {
      "buffer": 0,
      "byteOffset": 0,
      "byteLength": 2880,
      "target": 34962,
      "byteStride": 12
    },
    {
      "buffer": 0,
      "byteOffset": 2880,
      "byteLength": 2880,
      "target": 34962,
      "byteStride": 12
    },
    {
      "buffer": 0,
      "byteOffset": 5760,
      "byteLength": 1920,
      "target": 34962,
      "byteStride": 8
    },
    {
      "buffer": 0,
      "byteOffset": 7680,
      "byteLength": 696,
      "target": 34963
    }
  ],
  "buffers": [
    {
      "byteLength": 8376,
      "uri": "data:application/octet-stream;base64,"
    }
  ],
  "accessors": [
    {
      "bufferView": 0,
      "componentType": 5126,
      "count": 240,
      "max": [
        0.8589131832122803,
        0.23122373223304749,
        0.9862264394760132
      ],
      "min": [
        -0.8589131832122803,
        -0.8907443881034851,
        -0.9862264394760132
      ],
      "type": "VEC3"
    },
    {
      "bufferView": 1,
      "componentType": 5126,
      "count": 240,
      "max": [
        0.9999483823776245,
        1,
        0.99991774559021
      ],
      "min": [
        -0.9999483227729797,
        -1,
        -0.9999178051948547
      ],
      "type": "VEC3"
    },
    {
      "bufferView": 2,
      "componentType": 5126,
      "count": 240,
      "max": [
        0,
        1
      ],
      "min": [
        0,
        1
      ],
      "type": "VEC2"
    },
    {
      "bufferView": 3,
      "componentType": 5123,
      "count": 348,
      "max": [
        239
      ],
      "min": [
        0
      ],
      "type": "SCALAR"
    }
  ],
  "materials": [
    {
      "pbrMetallicRoughness": {
        "baseColorFactor": [
          0.0014186437474563718,
          0.8000000715255737,
          0,
          0.9
        ],
        "metallicFactor": 0.8,
        "roughnessFactor": 0.5
      },
      "emissiveFactor": [
        0,
        0.058823529411764705,
        0.023529411764705882
      ],
      "alphaMode": "BLEND",
      "doubleSided": true,
      "name": "Material.002"
    }
  ],
  "meshes": [
    {
      "primitives": [
        {
          "mode": 4,
          "attributes": {
            "POSITION": 0,
            "NORMAL": 1,
            "TEXCOORD_0": 2
          },
          "indices": 3,
          "material": 0
        }
      ]
    }
  ],
  "extensions": {
    "KHR_lights_punctual": {
      "lights": [
        {
          "name": "PointLight",
          "color": [
            1,
            1,
            1
          ],
          "intensity": 1,
          "type": "point"
        }
      ]
    }
  },
  "extensionsUsed": [
    "KHR_lights_punctual"
  ]
}