<?xml version="1.0" encoding="UTF-8" standalone="no"?>
<!DOCTYPE svg PUBLIC "-//W3C//DTD SVG 1.1//EN" "http://www.w3.org/Graphics/SVG/1.1/DTD/svg11.dtd">
<svg width="100%" height="100%" viewBox="0 0 123 124" version="1.1" xmlns="http://www.w3.org/2000/svg" xmlns:xlink="http://www.w3.org/1999/xlink" xml:space="preserve" xmlns:serif="http://www.serif.com/" style="fill-rule:evenodd;clip-rule:evenodd;stroke-linejoin:round;stroke-miterlimit:2;">
    <g transform="matrix(1,0,0,1,-188.579,-334.008)">
        <g>
            <g transform="matrix(5.44649,0,0,-5.44649,196.614,338.573)">
                <path d="M0.432,0.763C0.275,0.589 0.098,0.392 0.03,0.171C-0.068,-0.153 0.075,-0.513 0.422,-0.816L0.448,-0.838L0.552,-0.838L0.578,-0.816C0.925,-0.513 1.068,-0.153 0.97,0.171C0.902,0.392 0.725,0.589 0.568,0.763L0.5,0.838L0.432,0.763ZM0.206,0.118C0.253,0.272 0.372,0.42 0.5,0.564C0.627,0.42 0.747,0.272 0.794,0.118C0.867,-0.122 0.76,-0.395 0.5,-0.639C0.24,-0.395 0.133,-0.122 0.206,0.118Z" style="fill-rule:nonzero;"/>
            </g>
            <g transform="matrix(2.17529,0,0,-2.17529,198.25,384.399)">
                <path d="M0,18.351C0,18.154 0.116,17.988 0.281,17.906L0.281,-18.041C0.143,-18.112 0.044,-18.253 0.044,-18.42C0.044,-18.658 0.237,-18.85 0.475,-18.85C0.713,-18.85 0.905,-18.658 0.905,-18.42C0.905,-18.285 0.839,-18.169 0.741,-18.09L0.741,17.921C0.893,18.007 1,18.164 1,18.351C1,18.627 0.776,18.85 0.5,18.85C0.224,18.85 0,18.627 0,18.351Z" style="fill-rule:nonzero;"/>
            </g>
            <g transform="matrix(9.13562,0,0,-9.13562,200.961,341.874)">
                <path d="M0.639,0.355L0.607,0.347L0.576,0.336L0.546,0.325L0.516,0.313C0.439,0.279 0.369,0.234 0.31,0.186C0.25,0.137 0.201,0.082 0.161,0.029C0.12,-0.024 0.092,-0.078 0.068,-0.126C0.058,-0.152 0.047,-0.174 0.04,-0.196C0.033,-0.219 0.026,-0.238 0.021,-0.257C0.017,-0.276 0.013,-0.293 0.01,-0.307C0.007,-0.322 0.006,-0.334 0.004,-0.344C0.002,-0.364 0,-0.375 0,-0.375C0,-0.375 0.003,-0.365 0.009,-0.345C0.012,-0.335 0.015,-0.323 0.019,-0.309C0.024,-0.296 0.03,-0.28 0.037,-0.262C0.051,-0.227 0.07,-0.186 0.096,-0.141C0.123,-0.097 0.155,-0.047 0.197,0C0.239,0.047 0.289,0.095 0.347,0.138C0.405,0.181 0.472,0.218 0.544,0.247L0.571,0.258L0.599,0.267L0.628,0.276L0.657,0.282C0.696,0.292 0.735,0.298 0.772,0.297C0.81,0.297 0.845,0.288 0.871,0.269L0.875,0.265L0.88,0.261C0.884,0.257 0.886,0.254 0.888,0.252C0.893,0.247 0.898,0.24 0.901,0.233C0.909,0.218 0.914,0.202 0.917,0.184C0.929,0.114 0.892,0.042 0.837,-0.014C0.824,-0.028 0.809,-0.042 0.794,-0.054C0.786,-0.061 0.778,-0.068 0.77,-0.074C0.763,-0.08 0.755,-0.086 0.747,-0.092C0.714,-0.116 0.681,-0.137 0.646,-0.155C0.578,-0.189 0.503,-0.223 0.448,-0.208C0.441,-0.206 0.435,-0.203 0.429,-0.2C0.427,-0.199 0.423,-0.196 0.422,-0.195C0.418,-0.192 0.415,-0.189 0.414,-0.188C0.406,-0.18 0.399,-0.167 0.396,-0.154C0.388,-0.127 0.391,-0.096 0.402,-0.071C0.426,-0.019 0.474,0.017 0.516,0.046C0.56,0.076 0.598,0.1 0.633,0.115C0.667,0.13 0.696,0.137 0.716,0.14C0.736,0.143 0.746,0.143 0.746,0.143C0.746,0.143 0.736,0.145 0.715,0.145C0.695,0.144 0.664,0.142 0.627,0.13C0.59,0.118 0.547,0.099 0.5,0.073C0.477,0.06 0.452,0.045 0.427,0.026C0.403,0.007 0.378,-0.019 0.36,-0.051C0.343,-0.084 0.335,-0.124 0.343,-0.166C0.347,-0.187 0.355,-0.208 0.372,-0.227C0.376,-0.233 0.38,-0.235 0.383,-0.238C0.388,-0.244 0.393,-0.246 0.398,-0.25C0.407,-0.256 0.418,-0.262 0.429,-0.266C0.475,-0.281 0.52,-0.274 0.561,-0.264C0.602,-0.252 0.639,-0.237 0.678,-0.218C0.717,-0.2 0.754,-0.178 0.79,-0.154C0.799,-0.148 0.808,-0.141 0.817,-0.135C0.826,-0.128 0.835,-0.121 0.843,-0.114C0.861,-0.1 0.877,-0.085 0.893,-0.068C0.926,-0.036 0.955,0.002 0.975,0.048C0.996,0.092 1.005,0.146 0.997,0.197C0.993,0.222 0.985,0.248 0.972,0.271C0.965,0.283 0.958,0.294 0.948,0.305C0.943,0.311 0.937,0.317 0.934,0.32L0.926,0.326L0.918,0.332C0.874,0.366 0.82,0.375 0.773,0.375L0.769,0.375C0.723,0.375 0.679,0.367 0.639,0.355Z" style="fill-rule:nonzero;"/>
            </g>
            <g transform="matrix(9.13558,0,0,-9.13558,188.579,341.874)">
                <path d="M0.227,0.375C0.18,0.375 0.126,0.366 0.082,0.332L0.074,0.326L0.066,0.32C0.063,0.317 0.057,0.311 0.052,0.305C0.042,0.294 0.035,0.283 0.028,0.271C0.015,0.248 0.007,0.222 0.003,0.197C-0.005,0.146 0.004,0.092 0.025,0.048C0.045,0.002 0.074,-0.036 0.107,-0.068C0.123,-0.085 0.139,-0.1 0.157,-0.114C0.165,-0.121 0.174,-0.128 0.183,-0.135C0.192,-0.141 0.201,-0.148 0.21,-0.154C0.246,-0.178 0.283,-0.2 0.322,-0.218C0.361,-0.237 0.398,-0.252 0.439,-0.264C0.48,-0.274 0.525,-0.281 0.571,-0.266C0.582,-0.262 0.593,-0.256 0.602,-0.25C0.607,-0.246 0.612,-0.244 0.617,-0.238C0.62,-0.235 0.624,-0.233 0.628,-0.227C0.645,-0.208 0.653,-0.187 0.657,-0.166C0.665,-0.124 0.657,-0.084 0.64,-0.051C0.622,-0.019 0.597,0.007 0.573,0.026C0.548,0.045 0.523,0.06 0.5,0.073C0.453,0.099 0.41,0.118 0.373,0.13C0.336,0.142 0.305,0.144 0.285,0.145C0.264,0.145 0.254,0.143 0.254,0.143C0.254,0.143 0.264,0.143 0.285,0.14C0.305,0.137 0.333,0.13 0.367,0.115C0.401,0.1 0.44,0.076 0.484,0.046C0.526,0.017 0.574,-0.019 0.598,-0.071C0.609,-0.096 0.612,-0.127 0.604,-0.154C0.601,-0.167 0.594,-0.18 0.586,-0.188C0.585,-0.189 0.582,-0.192 0.578,-0.195C0.577,-0.196 0.573,-0.199 0.571,-0.2C0.565,-0.203 0.559,-0.206 0.552,-0.208C0.497,-0.223 0.422,-0.189 0.354,-0.155C0.319,-0.137 0.286,-0.116 0.253,-0.092C0.245,-0.086 0.237,-0.08 0.23,-0.074C0.222,-0.068 0.214,-0.061 0.206,-0.054C0.191,-0.042 0.176,-0.028 0.163,-0.014C0.108,0.042 0.071,0.114 0.083,0.184C0.086,0.202 0.091,0.218 0.099,0.233C0.102,0.24 0.107,0.247 0.112,0.252C0.114,0.254 0.115,0.257 0.12,0.261L0.125,0.265L0.129,0.269C0.155,0.288 0.19,0.297 0.228,0.297C0.265,0.298 0.304,0.292 0.343,0.282L0.372,0.276L0.429,0.258L0.456,0.247C0.528,0.218 0.595,0.181 0.653,0.138C0.711,0.095 0.761,0.047 0.803,0C0.845,-0.047 0.877,-0.097 0.904,-0.141C0.93,-0.186 0.949,-0.227 0.963,-0.262C0.97,-0.28 0.976,-0.296 0.981,-0.309C0.985,-0.323 0.988,-0.335 0.991,-0.345C0.997,-0.365 1,-0.375 1,-0.375C1,-0.375 0.998,-0.364 0.996,-0.344C0.994,-0.334 0.993,-0.322 0.99,-0.307C0.987,-0.293 0.983,-0.276 0.978,-0.257C0.974,-0.238 0.967,-0.219 0.96,-0.196C0.953,-0.174 0.942,-0.152 0.932,-0.126C0.908,-0.078 0.88,-0.024 0.839,0.029C0.799,0.082 0.75,0.137 0.69,0.186C0.631,0.234 0.561,0.279 0.484,0.313L0.454,0.325L0.424,0.336L0.393,0.347L0.361,0.355C0.321,0.367 0.277,0.375 0.23,0.375L0.227,0.375Z" style="fill-rule:nonzero;"/>
            </g>
            <g transform="matrix(0,5.44649,5.44649,0,306.929,443.777)">
                <path d="M0.422,-0.815L0.448,-0.838L0.552,-0.838L0.578,-0.815C0.925,-0.513 1.068,-0.153 0.97,0.171C0.902,0.392 0.725,0.589 0.568,0.763L0.5,0.838L0.432,0.763C0.275,0.589 0.098,0.392 0.031,0.171C0.01,0.104 0,0.035 0,-0.035C0,-0.3 0.147,-0.576 0.422,-0.815ZM0.5,-0.638C0.24,-0.395 0.134,-0.122 0.206,0.118C0.253,0.272 0.373,0.42 0.5,0.564C0.627,0.42 0.747,0.272 0.794,0.118C0.809,0.068 0.816,0.018 0.816,-0.034C0.816,-0.233 0.706,-0.445 0.5,-0.638Z" style="fill-rule:nonzero;"/>
            </g>
            <g transform="matrix(0,2.17529,2.17529,0,261.105,445.412)">
                <path d="M0.281,17.906L0.281,-18.041C0.142,-18.112 0.044,-18.253 0.044,-18.42C0.044,-18.658 0.237,-18.851 0.475,-18.851C0.712,-18.851 0.906,-18.658 0.906,-18.42C0.906,-18.285 0.839,-18.169 0.741,-18.09L0.741,17.921C0.893,18.007 1,18.164 1,18.35C1,18.627 0.776,18.851 0.5,18.851C0.224,18.851 0,18.627 0,18.35C0,18.154 0.116,17.988 0.281,17.906Z" style="fill-rule:nonzero;"/>
            </g>
            <g transform="matrix(0,9.13562,9.13562,0,303.634,448.123)">
                <path d="M0.009,-0.346C0.012,-0.336 0.015,-0.324 0.019,-0.31C0.024,-0.296 0.03,-0.28 0.037,-0.263C0.05,-0.228 0.07,-0.187 0.096,-0.141C0.123,-0.097 0.155,-0.048 0.197,0C0.239,0.047 0.289,0.095 0.347,0.138C0.405,0.18 0.472,0.217 0.544,0.246L0.571,0.257L0.599,0.266L0.628,0.275L0.657,0.281C0.696,0.291 0.735,0.297 0.772,0.297C0.81,0.296 0.845,0.288 0.871,0.268L0.875,0.265L0.875,0.264L0.88,0.26C0.885,0.256 0.886,0.254 0.888,0.251C0.893,0.246 0.898,0.239 0.901,0.232C0.909,0.217 0.915,0.201 0.917,0.184C0.929,0.113 0.892,0.042 0.837,-0.015C0.824,-0.029 0.809,-0.043 0.794,-0.055C0.786,-0.062 0.778,-0.069 0.77,-0.075C0.763,-0.081 0.755,-0.087 0.747,-0.093C0.714,-0.116 0.681,-0.137 0.646,-0.155C0.578,-0.189 0.503,-0.223 0.448,-0.209C0.441,-0.207 0.435,-0.204 0.429,-0.201C0.427,-0.199 0.423,-0.197 0.422,-0.196C0.418,-0.193 0.415,-0.19 0.414,-0.188C0.406,-0.18 0.399,-0.167 0.396,-0.154C0.388,-0.128 0.391,-0.097 0.402,-0.072C0.426,-0.02 0.474,0.016 0.517,0.046C0.56,0.075 0.599,0.099 0.633,0.114C0.667,0.129 0.696,0.137 0.716,0.14C0.735,0.142 0.746,0.142 0.746,0.142C0.746,0.142 0.736,0.144 0.715,0.144C0.695,0.143 0.664,0.141 0.627,0.129C0.59,0.118 0.547,0.098 0.5,0.072C0.477,0.059 0.452,0.044 0.427,0.025C0.403,0.006 0.378,-0.019 0.36,-0.051C0.343,-0.085 0.335,-0.125 0.343,-0.167C0.347,-0.188 0.355,-0.208 0.372,-0.227C0.377,-0.233 0.38,-0.236 0.383,-0.239C0.388,-0.244 0.393,-0.247 0.397,-0.25C0.408,-0.257 0.418,-0.263 0.429,-0.266C0.475,-0.281 0.52,-0.275 0.561,-0.264C0.602,-0.253 0.639,-0.237 0.678,-0.219C0.717,-0.201 0.754,-0.179 0.79,-0.154C0.799,-0.148 0.808,-0.142 0.817,-0.135C0.826,-0.128 0.835,-0.121 0.843,-0.115C0.861,-0.101 0.877,-0.086 0.893,-0.069C0.926,-0.036 0.955,0.002 0.975,0.047C0.996,0.092 1.005,0.145 0.997,0.196C0.993,0.222 0.985,0.247 0.972,0.271C0.965,0.283 0.958,0.293 0.948,0.304C0.943,0.31 0.937,0.316 0.934,0.319L0.926,0.326L0.918,0.332C0.874,0.365 0.82,0.375 0.773,0.375C0.725,0.375 0.68,0.367 0.639,0.355L0.607,0.346L0.546,0.325L0.517,0.312C0.439,0.279 0.369,0.234 0.31,0.185C0.25,0.136 0.201,0.082 0.161,0.029C0.12,-0.024 0.092,-0.079 0.068,-0.127C0.058,-0.152 0.047,-0.175 0.04,-0.197C0.033,-0.219 0.026,-0.239 0.021,-0.258C0.017,-0.277 0.013,-0.293 0.01,-0.308C0.007,-0.322 0.006,-0.335 0.004,-0.345C0.002,-0.365 0,-0.376 0,-0.376C0,-0.376 0.003,-0.365 0.009,-0.346Z" style="fill-rule:nonzero;"/>
            </g>
            <g transform="matrix(0,9.13558,9.13558,0,303.634,435.741)">
                <path d="M0.024,0.047C0.045,0.002 0.075,-0.036 0.107,-0.069C0.123,-0.086 0.139,-0.101 0.157,-0.115C0.165,-0.121 0.174,-0.128 0.183,-0.135C0.192,-0.142 0.201,-0.148 0.21,-0.154C0.246,-0.179 0.283,-0.201 0.322,-0.219C0.361,-0.237 0.398,-0.253 0.439,-0.264C0.48,-0.275 0.525,-0.281 0.571,-0.266C0.582,-0.263 0.592,-0.257 0.602,-0.25C0.607,-0.247 0.612,-0.244 0.617,-0.239C0.62,-0.236 0.624,-0.233 0.628,-0.227C0.645,-0.208 0.653,-0.188 0.657,-0.167C0.665,-0.125 0.657,-0.085 0.64,-0.051C0.622,-0.019 0.597,0.006 0.573,0.025C0.548,0.044 0.523,0.059 0.5,0.072C0.453,0.098 0.41,0.118 0.373,0.129C0.336,0.141 0.305,0.143 0.285,0.144C0.264,0.144 0.253,0.142 0.253,0.142C0.253,0.142 0.264,0.142 0.284,0.14C0.304,0.137 0.333,0.129 0.367,0.114C0.401,0.099 0.44,0.075 0.483,0.046C0.526,0.016 0.574,-0.02 0.598,-0.072C0.609,-0.097 0.612,-0.128 0.604,-0.154C0.601,-0.167 0.594,-0.18 0.586,-0.188C0.585,-0.19 0.582,-0.193 0.578,-0.196C0.577,-0.197 0.573,-0.199 0.571,-0.201C0.565,-0.204 0.559,-0.207 0.552,-0.209C0.497,-0.223 0.422,-0.189 0.354,-0.155C0.319,-0.137 0.286,-0.116 0.253,-0.093C0.245,-0.087 0.237,-0.081 0.23,-0.075C0.222,-0.069 0.214,-0.062 0.206,-0.055C0.191,-0.043 0.176,-0.029 0.163,-0.015C0.107,0.042 0.071,0.113 0.083,0.184C0.085,0.201 0.091,0.217 0.099,0.232C0.102,0.239 0.107,0.246 0.112,0.251C0.114,0.254 0.115,0.256 0.12,0.26L0.125,0.264L0.125,0.265L0.129,0.268C0.155,0.288 0.19,0.296 0.228,0.297C0.265,0.297 0.304,0.291 0.343,0.281L0.372,0.275L0.401,0.266L0.429,0.257L0.456,0.246C0.528,0.217 0.595,0.18 0.653,0.138C0.711,0.095 0.761,0.047 0.803,0C0.845,-0.048 0.877,-0.097 0.904,-0.141C0.93,-0.187 0.949,-0.228 0.963,-0.263C0.97,-0.28 0.976,-0.296 0.981,-0.31C0.985,-0.324 0.988,-0.336 0.991,-0.346C0.997,-0.365 1,-0.376 1,-0.376C1,-0.376 0.998,-0.365 0.996,-0.345C0.994,-0.335 0.993,-0.322 0.99,-0.308C0.987,-0.293 0.983,-0.277 0.979,-0.258C0.974,-0.239 0.967,-0.219 0.96,-0.197C0.953,-0.175 0.942,-0.152 0.932,-0.127C0.908,-0.079 0.88,-0.024 0.839,0.029C0.799,0.082 0.75,0.136 0.69,0.185C0.631,0.234 0.561,0.279 0.483,0.312L0.454,0.325L0.424,0.335L0.393,0.346L0.361,0.355C0.32,0.367 0.275,0.375 0.227,0.375C0.179,0.375 0.126,0.365 0.082,0.332L0.074,0.326L0.066,0.319C0.063,0.316 0.057,0.31 0.052,0.304C0.042,0.293 0.035,0.283 0.028,0.271C0.015,0.247 0.007,0.222 0.003,0.196C0.001,0.184 0,0.171 0,0.158C0,0.12 0.009,0.081 0.024,0.047Z" style="fill-rule:nonzero;"/>
            </g>
            <g transform="matrix(28.3298,0,0,-28.3298,192.885,438.998)">
                <path d="M0.091,0.488C0.06,0.466 0.038,0.439 0.022,0.404C-0.003,0.349 -0.013,0.274 0.029,0.19C0.022,0.119 0.032,0.021 0.115,0.015C0.157,0.012 0.176,0.034 0.184,0.068C0.192,0.098 0.167,0.128 0.14,0.132C0.092,0.139 0.059,0.071 0.109,0.054C0.126,0.048 0.138,0.071 0.126,0.082C0.126,0.083 0.125,0.083 0.125,0.083C0.123,0.086 0.121,0.087 0.118,0.088C0.119,0.092 0.12,0.094 0.123,0.096C0.145,0.106 0.154,0.086 0.152,0.074C0.148,0.044 0.116,0.041 0.097,0.052C0.081,0.062 0.069,0.077 0.064,0.095C0.052,0.134 0.053,0.176 0.059,0.216C0.064,0.256 0.073,0.282 0.085,0.311C0.086,0.276 0.096,0.24 0.113,0.208C0.15,0.139 0.207,0.089 0.279,0.059C0.311,0.046 0.343,0.035 0.377,0.029C0.276,0.017 0.177,-0.021 0.111,-0.101C0.065,-0.156 0.039,-0.219 0.03,-0.289C0.025,-0.323 0.025,-0.343 0.027,-0.378C0.029,-0.407 0.036,-0.441 0.043,-0.444C0.049,-0.451 0.081,-0.457 0.109,-0.459C0.144,-0.461 0.164,-0.461 0.198,-0.457C0.268,-0.447 0.331,-0.421 0.385,-0.376C0.466,-0.309 0.504,-0.211 0.516,-0.109C0.522,-0.143 0.533,-0.176 0.546,-0.207C0.576,-0.279 0.626,-0.336 0.695,-0.373C0.727,-0.39 0.763,-0.401 0.798,-0.401C0.769,-0.413 0.743,-0.422 0.703,-0.428C0.662,-0.433 0.621,-0.434 0.582,-0.423C0.564,-0.417 0.549,-0.405 0.539,-0.389C0.528,-0.37 0.531,-0.338 0.56,-0.334C0.573,-0.332 0.593,-0.342 0.583,-0.363C0.581,-0.366 0.579,-0.368 0.575,-0.368C0.574,-0.366 0.573,-0.363 0.57,-0.361C0.57,-0.361 0.57,-0.361 0.569,-0.36C0.558,-0.348 0.535,-0.36 0.541,-0.377C0.557,-0.428 0.626,-0.394 0.619,-0.346C0.615,-0.319 0.585,-0.294 0.555,-0.302C0.521,-0.31 0.499,-0.33 0.502,-0.372C0.508,-0.454 0.606,-0.464 0.677,-0.458C0.761,-0.5 0.836,-0.49 0.891,-0.464C0.926,-0.448 0.953,-0.426 0.975,-0.395C0.989,-0.376 1.006,-0.339 0.998,-0.314C0.998,-0.314 0.996,-0.313 0.996,-0.314C0.991,-0.332 0.983,-0.349 0.975,-0.363C0.955,-0.396 0.934,-0.417 0.901,-0.435C0.868,-0.453 0.84,-0.455 0.803,-0.457C0.775,-0.458 0.757,-0.453 0.739,-0.447C0.762,-0.442 0.785,-0.435 0.806,-0.426C0.837,-0.413 0.892,-0.374 0.902,-0.36C0.902,-0.36 0.902,-0.36 0.902,-0.36C0.952,-0.309 0.961,-0.219 0.911,-0.172C0.791,-0.058 0.642,-0.243 0.76,-0.33C0.809,-0.366 0.88,-0.329 0.882,-0.271C0.883,-0.247 0.87,-0.226 0.85,-0.219C0.822,-0.209 0.785,-0.219 0.784,-0.259C0.783,-0.284 0.821,-0.284 0.821,-0.259C0.841,-0.258 0.853,-0.285 0.828,-0.301C0.817,-0.307 0.803,-0.308 0.792,-0.304C0.767,-0.298 0.756,-0.273 0.756,-0.25C0.755,-0.202 0.811,-0.167 0.853,-0.18C0.909,-0.198 0.916,-0.26 0.896,-0.304C0.873,-0.355 0.824,-0.371 0.772,-0.364C0.688,-0.352 0.617,-0.277 0.58,-0.206C0.543,-0.136 0.537,-0.058 0.517,0.017C0.517,0.019 0.517,0.02 0.516,0.022C0.516,0.022 0.516,0.023 0.516,0.023C0.516,0.023 0.516,0.023 0.515,0.024C0.515,0.024 0.515,0.024 0.515,0.024C0.515,0.025 0.514,0.025 0.514,0.025C0.514,0.026 0.513,0.026 0.513,0.027C0.51,0.029 0.507,0.031 0.502,0.031L0.501,0.031C0.501,0.031 0.501,0.031 0.5,0.031C0.426,0.05 0.349,0.057 0.28,0.093C0.209,0.13 0.135,0.201 0.123,0.285C0.115,0.337 0.132,0.386 0.182,0.409C0.226,0.429 0.288,0.422 0.306,0.366C0.32,0.324 0.285,0.268 0.237,0.269C0.213,0.269 0.188,0.28 0.182,0.305C0.178,0.317 0.179,0.33 0.185,0.341C0.202,0.366 0.228,0.354 0.227,0.335C0.203,0.335 0.203,0.296 0.227,0.297C0.267,0.298 0.277,0.335 0.267,0.363C0.26,0.383 0.239,0.396 0.216,0.395C0.157,0.393 0.121,0.322 0.157,0.273C0.244,0.155 0.428,0.304 0.315,0.424C0.267,0.474 0.177,0.465 0.127,0.415C0.126,0.415 0.126,0.415 0.126,0.415C0.112,0.405 0.074,0.35 0.06,0.319C0.051,0.298 0.044,0.275 0.039,0.252C0.033,0.27 0.029,0.288 0.03,0.316C0.031,0.353 0.033,0.381 0.051,0.414C0.069,0.447 0.09,0.468 0.123,0.488C0.137,0.497 0.155,0.504 0.173,0.509C0.174,0.509 0.173,0.511 0.172,0.511C0.168,0.512 0.163,0.513 0.158,0.513C0.135,0.513 0.107,0.499 0.091,0.488ZM0.064,-0.256C0.079,-0.195 0.109,-0.139 0.156,-0.096C0.246,-0.014 0.369,0.009 0.487,0C0.495,-0.118 0.473,-0.24 0.391,-0.33C0.348,-0.377 0.292,-0.407 0.231,-0.423C0.188,-0.434 0.143,-0.434 0.099,-0.433C0.084,-0.433 0.068,-0.433 0.053,-0.434C0.054,-0.375 0.049,-0.314 0.064,-0.256Z" style="fill-rule:nonzero;"/>
            </g>
        </g>
    </g>
</svg>
