<?xml version="1.0" encoding="UTF-8" standalone="no"?>
<!DOCTYPE svg PUBLIC "-//W3C//DTD SVG 1.1//EN" "http://www.w3.org/Graphics/SVG/1.1/DTD/svg11.dtd">
<svg width="100%" height="100%" viewBox="0 0 181 35" version="1.1" xmlns="http://www.w3.org/2000/svg" xmlns:xlink="http://www.w3.org/1999/xlink" xml:space="preserve" xmlns:serif="http://www.serif.com/" style="fill-rule:evenodd;clip-rule:evenodd;stroke-linejoin:round;stroke-miterlimit:2;">
    <g transform="matrix(1,0,0,1,-159.563,-27.553)">
        <g transform="matrix(180.873,0,0,-180.873,159.564,44.6788)">
            <path d="M0.5,0.095C0.421,0.095 0.404,0.021 0.402,0.006C0.396,0.005 0.39,0.004 0.385,0.002C0.343,-0.011 0.096,-0.068 0.088,-0.07C0.084,-0.071 0.042,-0.074 0.02,-0.055C0.012,-0.048 0.007,-0.038 0.007,-0.025C0.006,0.007 0.027,0.015 0.035,0.017C0.052,0.021 0.069,0.014 0.074,0.002C0.079,-0.009 0.078,-0.02 0.072,-0.026C0.069,-0.029 0.066,-0.031 0.062,-0.032C0.057,-0.03 0.057,-0.028 0.059,-0.021C0.06,-0.016 0.063,-0.007 0.052,-0.004C0.044,-0.002 0.037,-0.005 0.035,-0.013C0.032,-0.022 0.036,-0.034 0.048,-0.038C0.052,-0.04 0.058,-0.04 0.062,-0.039C0.063,-0.039 0.063,-0.039 0.063,-0.039C0.069,-0.038 0.073,-0.035 0.077,-0.031C0.085,-0.022 0.087,-0.009 0.081,0.005C0.075,0.02 0.054,0.028 0.034,0.024C0.012,0.019 -0.001,0.001 0,-0.025C0,-0.04 0.006,-0.052 0.016,-0.06C0.041,-0.082 0.087,-0.077 0.089,-0.077C0.089,-0.077 0.089,-0.077 0.089,-0.077C0.092,-0.076 0.345,-0.018 0.387,-0.005C0.412,0.003 0.449,0.003 0.468,-0.014C0.479,-0.023 0.483,-0.036 0.48,-0.052C0.477,-0.071 0.467,-0.084 0.452,-0.087C0.437,-0.09 0.419,-0.083 0.411,-0.072C0.404,-0.061 0.405,-0.052 0.407,-0.047C0.41,-0.038 0.418,-0.033 0.424,-0.031C0.424,-0.031 0.424,-0.031 0.424,-0.031C0.43,-0.03 0.435,-0.031 0.439,-0.035C0.443,-0.039 0.448,-0.045 0.445,-0.049C0.444,-0.052 0.443,-0.053 0.443,-0.053C0.443,-0.051 0.443,-0.048 0.44,-0.045C0.437,-0.042 0.431,-0.042 0.427,-0.044C0.423,-0.047 0.421,-0.052 0.424,-0.059C0.427,-0.067 0.437,-0.069 0.444,-0.067C0.453,-0.065 0.458,-0.059 0.457,-0.05C0.457,-0.042 0.452,-0.034 0.445,-0.029C0.439,-0.024 0.43,-0.022 0.423,-0.024C0.413,-0.027 0.404,-0.035 0.4,-0.044C0.397,-0.054 0.398,-0.066 0.405,-0.076C0.413,-0.087 0.429,-0.095 0.444,-0.095C0.447,-0.095 0.45,-0.094 0.453,-0.094C0.464,-0.091 0.482,-0.083 0.487,-0.053C0.49,-0.035 0.485,-0.02 0.473,-0.009C0.457,0.004 0.432,0.009 0.409,0.007C0.412,0.024 0.429,0.088 0.5,0.088C0.5,0.088 0.5,0.088 0.5,0.088C0.571,0.088 0.588,0.024 0.591,0.007C0.568,0.009 0.543,0.004 0.527,-0.009C0.515,-0.02 0.51,-0.035 0.513,-0.053C0.518,-0.083 0.536,-0.091 0.547,-0.094C0.55,-0.094 0.553,-0.095 0.556,-0.095C0.571,-0.095 0.587,-0.087 0.595,-0.076C0.602,-0.065 0.603,-0.054 0.6,-0.044C0.596,-0.035 0.587,-0.027 0.578,-0.024C0.57,-0.022 0.561,-0.024 0.555,-0.029C0.548,-0.034 0.543,-0.042 0.543,-0.05C0.542,-0.058 0.547,-0.065 0.556,-0.067C0.563,-0.069 0.573,-0.067 0.576,-0.059C0.579,-0.052 0.577,-0.047 0.573,-0.044C0.569,-0.042 0.563,-0.042 0.56,-0.045C0.557,-0.048 0.557,-0.051 0.557,-0.053C0.557,-0.053 0.556,-0.052 0.555,-0.049C0.552,-0.045 0.557,-0.039 0.561,-0.035C0.565,-0.031 0.57,-0.03 0.576,-0.031C0.576,-0.031 0.576,-0.031 0.576,-0.031C0.582,-0.033 0.59,-0.038 0.593,-0.047C0.595,-0.052 0.596,-0.061 0.589,-0.072C0.581,-0.083 0.563,-0.09 0.548,-0.087C0.533,-0.084 0.523,-0.071 0.52,-0.052C0.517,-0.036 0.521,-0.023 0.532,-0.014C0.551,0.003 0.588,0.003 0.613,-0.005C0.655,-0.018 0.908,-0.076 0.911,-0.077C0.911,-0.077 0.911,-0.077 0.911,-0.077C0.913,-0.077 0.959,-0.082 0.984,-0.06C0.994,-0.052 1,-0.04 1,-0.025C1.001,0.001 0.988,0.019 0.966,0.024C0.946,0.028 0.925,0.02 0.919,0.005C0.913,-0.009 0.915,-0.022 0.923,-0.031C0.927,-0.035 0.931,-0.038 0.937,-0.039C0.937,-0.039 0.937,-0.039 0.938,-0.039C0.942,-0.04 0.948,-0.04 0.952,-0.038C0.964,-0.034 0.968,-0.022 0.965,-0.013C0.963,-0.005 0.956,-0.002 0.948,-0.004C0.937,-0.007 0.94,-0.016 0.941,-0.021C0.943,-0.028 0.943,-0.03 0.938,-0.032C0.934,-0.031 0.931,-0.029 0.928,-0.026C0.922,-0.02 0.921,-0.009 0.926,0.002C0.931,0.014 0.948,0.021 0.965,0.017C0.973,0.015 0.994,0.007 0.993,-0.025C0.993,-0.038 0.988,-0.048 0.98,-0.055C0.958,-0.074 0.916,-0.071 0.912,-0.07C0.904,-0.068 0.657,-0.011 0.615,0.002C0.61,0.004 0.604,0.005 0.598,0.006C0.596,0.021 0.579,0.095 0.5,0.095C0.5,0.095 0.5,0.095 0.5,0.095ZM0.5,0.063C0.487,0.063 0.477,0.053 0.477,0.04C0.477,0.027 0.487,0.016 0.5,0.016C0.5,0.016 0.5,0.016 0.501,0.016C0.513,0.016 0.524,0.027 0.524,0.04C0.524,0.053 0.513,0.063 0.5,0.063C0.5,0.063 0.5,0.063 0.5,0.063ZM0.484,0.04C0.484,0.049 0.491,0.056 0.5,0.056C0.5,0.056 0.5,0.056 0.5,0.056C0.509,0.056 0.517,0.049 0.517,0.04C0.517,0.031 0.509,0.023 0.5,0.023C0.5,0.023 0.5,0.023 0.5,0.023C0.491,0.023 0.484,0.031 0.484,0.04ZM0.679,-0.048C0.679,-0.048 0.679,-0.048 0.679,-0.048C0.663,-0.05 0.646,-0.057 0.636,-0.064C0.618,-0.078 0.59,-0.087 0.589,-0.087C0.588,-0.088 0.587,-0.089 0.587,-0.091C0.588,-0.093 0.589,-0.094 0.591,-0.094C0.591,-0.094 0.591,-0.094 0.592,-0.094C0.593,-0.093 0.621,-0.084 0.641,-0.07C0.649,-0.063 0.665,-0.057 0.68,-0.054C0.68,-0.054 0.68,-0.054 0.68,-0.054C0.697,-0.053 0.701,-0.057 0.702,-0.059C0.704,-0.061 0.703,-0.065 0.701,-0.067C0.699,-0.07 0.699,-0.073 0.701,-0.075C0.705,-0.079 0.712,-0.079 0.717,-0.076C0.72,-0.074 0.725,-0.069 0.72,-0.058C0.718,-0.053 0.714,-0.05 0.707,-0.048C0.703,-0.047 0.699,-0.046 0.694,-0.046C0.689,-0.046 0.684,-0.047 0.679,-0.048ZM0.293,-0.048C0.286,-0.05 0.282,-0.053 0.28,-0.058C0.275,-0.069 0.28,-0.074 0.283,-0.076C0.288,-0.079 0.295,-0.079 0.299,-0.075C0.301,-0.073 0.301,-0.07 0.299,-0.067C0.297,-0.065 0.296,-0.061 0.298,-0.059C0.299,-0.057 0.303,-0.053 0.32,-0.054C0.32,-0.054 0.32,-0.054 0.32,-0.054C0.335,-0.057 0.351,-0.063 0.359,-0.07C0.379,-0.084 0.407,-0.093 0.408,-0.094C0.409,-0.094 0.409,-0.094 0.409,-0.094C0.411,-0.094 0.412,-0.093 0.413,-0.091C0.413,-0.089 0.412,-0.088 0.411,-0.087C0.41,-0.087 0.382,-0.078 0.364,-0.064C0.354,-0.057 0.337,-0.05 0.321,-0.048C0.321,-0.048 0.321,-0.048 0.321,-0.048C0.316,-0.047 0.311,-0.046 0.306,-0.046C0.301,-0.046 0.297,-0.047 0.293,-0.048Z" style="fill-rule:nonzero;"/>
        </g>
    </g>
</svg>
